<?xml version="1.0" encoding="UTF-8"?>
<svg id="Camada_2" data-name="Camada 2" xmlns="http://www.w3.org/2000/svg" viewBox="0 0 31.25 31.25">
  <defs>
    <style>
      .cls-1 {
        fill: #ededed;
        fill-rule: evenodd;
      }
    </style>
  </defs>
  <g id="Camada_1-2" data-name="Camada 1">
    <path class="cls-1" d="M4.69,0H26.56c2.66,0,4.69,2.03,4.69,4.69v15.62c0,2.66-2.03,4.69-4.69,4.69H8.44l-5.78,5.78c-.31,.31-.63,.47-1.09,.47-.16,0-.47,0-.62-.16-.63-.16-.94-.78-.94-1.41V4.69C0,2.03,2.03,0,4.69,0ZM26.56,21.88c.94,0,1.56-.62,1.56-1.56V4.69c0-.94-.62-1.56-1.56-1.56H4.69c-.94,0-1.56,.62-1.56,1.56V25.94l3.59-3.59c.31-.31,.63-.47,1.09-.47H26.56Z"/>
  </g>
</svg>