<?xml version="1.0" encoding="UTF-8"?>
<svg id="Camada_2" data-name="Camada 2" xmlns="http://www.w3.org/2000/svg" viewBox="0 0 55.92 55.92">
  <defs>
    <style>
      .cls-1 {
        fill: #fff;
      }

      .cls-2 {
        fill: #dd2911;
      }

      .cls-3 {
        fill: #d42b1e;
      }

      .cls-4 {
        fill: #1a1f21;
      }

      .cls-5 {
        fill: #fedd19;
      }
    </style>
  </defs>
  <g id="Camada_1-2" data-name="Camada 1">
    <path class="cls-4" d="M9.87,0H46.05c5.45,0,9.87,4.42,9.87,9.87V46.05c0,5.45-4.42,9.87-9.87,9.87H9.87c-5.45,0-9.87-4.42-9.87-9.87V9.87C0,4.42,4.42,0,9.87,0Z"/>
    <g>
      <g>
        <g>
          <path class="cls-3" d="M7.11,16.49v21.98c-2.62-2.92-4.21-6.77-4.21-10.99s1.59-8.07,4.21-10.99Z"/>
          <path class="cls-1" d="M31.69,16.5v21.98c-3.02,3.38-7.41,5.51-12.29,5.51s-9.27-2.13-12.29-5.51V16.49c3.02-3.38,7.41-5.51,12.29-5.51s9.27,2.13,12.29,5.51Z"/>
          <path class="cls-3" d="M35.9,27.48c0,4.22-1.59,8.07-4.21,10.99V16.5c2.61,2.92,4.21,6.77,4.21,10.99Z"/>
        </g>
        <path class="cls-3" d="M24.37,31.31l4.65-3.78-1.08-.47c-.15-.06-.23-.23-.19-.39l.86-3.09-2.79,.6c-.18,.04-.35-.07-.39-.25l-.3-1.31-2.26,2.51c-.27,.3-.77,.05-.69-.35l1.04-5.1-1.51,.77c-.22,.11-.5,.03-.61-.19l-1.68-3.11-1.68,3.11c-.12,.22-.39,.31-.62,.19l-1.51-.77,1.04,5.1c.09,.4-.41,.66-.69,.35l-2.27-2.51-.3,1.31c-.04,.17-.21,.29-.39,.25l-2.8-.6,.86,3.09c.04,.16-.04,.33-.19,.39l-1.09,.47,4.65,3.78c.21,.17,.29,.46,.2,.71l-.42,1.2,4.51-.6c.22-.03,.41,.14,.41,.37l-.13,4.82h.8l-.13-4.82c0-.22,.19-.4,.41-.37l4.51,.6-.42-1.2c-.09-.26-.01-.54,.2-.71Z"/>
        <circle class="cls-4" cx="36.67" cy="27.44" r="18"/>
      </g>
      <g>
        <circle class="cls-2" cx="36.67" cy="27.44" r="16.5"/>
        <g>
          <polygon class="cls-5" points="29.6 16.87 30.56 19.8 33.64 19.8 31.15 21.61 32.1 24.55 29.6 22.73 27.11 24.55 28.06 21.61 25.57 19.8 28.65 19.8 29.6 16.87"/>
          <polygon class="cls-5" points="37.17 15.6 37.07 16.62 38.01 17.02 37.02 17.25 36.93 18.27 36.4 17.39 35.41 17.62 36.08 16.85 35.56 15.97 36.5 16.37 37.17 15.6"/>
          <polygon class="cls-5" points="40.44 18.73 39.96 19.64 40.67 20.37 39.67 20.2 39.18 21.1 39.04 20.08 38.04 19.91 38.96 19.46 38.81 18.45 39.53 19.18 40.44 18.73"/>
          <polygon class="cls-5" points="40.75 23.45 39.94 24.08 40.29 25.03 39.44 24.46 38.63 25.09 38.92 24.11 38.08 23.53 39.1 23.5 39.38 22.52 39.73 23.48 40.75 23.45"/>
          <polygon class="cls-5" points="38.03 26.81 37.04 27.08 37 28.1 36.43 27.25 35.45 27.52 36.09 26.72 35.53 25.87 36.48 26.23 37.12 25.43 37.07 26.45 38.03 26.81"/>
        </g>
      </g>
    </g>
  </g>
</svg>