<?xml version="1.0" encoding="UTF-8"?>
<svg id="Camada_2" data-name="Camada 2" xmlns="http://www.w3.org/2000/svg" viewBox="0 0 55.92 55.92">
  <defs>
    <style>
      .cls-1 {
        fill: #dd2911;
      }

      .cls-2 {
        fill: #1a1f21;
      }

      .cls-3 {
        fill: #fedd19;
      }
    </style>
  </defs>
  <g id="Camada_1-2" data-name="Camada 1">
    <path class="cls-2" d="M9.87,0H46.05c5.45,0,9.87,4.42,9.87,9.87V46.05c0,5.45-4.42,9.87-9.87,9.87H9.87c-5.45,0-9.87-4.42-9.87-9.87V9.87C0,4.42,4.42,0,9.87,0Z"/>
    <g>
      <circle class="cls-1" cx="27.52" cy="28.06" r="20"/>
      <g>
        <polygon class="cls-3" points="18.96 15.25 20.12 18.8 23.85 18.8 20.83 21 21.99 24.55 18.96 22.35 15.94 24.55 17.09 21 14.07 18.8 17.81 18.8 18.96 15.25"/>
        <polygon class="cls-3" points="28.13 13.71 28.02 14.94 29.16 15.43 27.95 15.71 27.84 16.94 27.2 15.88 26 16.15 26.81 15.22 26.18 14.15 27.32 14.64 28.13 13.71"/>
        <polygon class="cls-3" points="32.1 17.51 31.52 18.6 32.38 19.49 31.16 19.28 30.57 20.37 30.4 19.14 29.19 18.93 30.3 18.39 30.13 17.16 30.99 18.05 32.1 17.51"/>
        <polygon class="cls-3" points="32.47 23.22 31.49 23.98 31.91 25.14 30.89 24.45 29.91 25.21 30.26 24.02 29.23 23.32 30.47 23.28 30.82 22.09 31.23 23.26 32.47 23.22"/>
        <polygon class="cls-3" points="29.17 27.3 27.98 27.63 27.92 28.86 27.24 27.83 26.05 28.15 26.82 27.19 26.14 26.15 27.3 26.59 28.07 25.62 28.02 26.86 29.17 27.3"/>
      </g>
    </g>
  </g>
</svg>