<?xml version="1.0" encoding="UTF-8"?>
<svg id="Camada_2" data-name="Camada 2" xmlns="http://www.w3.org/2000/svg" viewBox="0 0 30.6 30.6">
  <defs>
    <style>
      .cls-1 {
        fill: #ededed;
      }
    </style>
  </defs>
  <g id="Camada_1-2" data-name="Camada 1">
    <g>
      <path class="cls-1" d="M28.99,10.53h-1.4c-.07-.19-.15-.37-.23-.56l.99-.99c.63-.63,.63-1.65,0-2.27l-4.47-4.46c-.63-.63-1.65-.63-2.27,0l-.99,.99c-.18-.08-.37-.16-.55-.23V1.61c0-.89-.72-1.61-1.61-1.61h-6.32c-.89,0-1.61,.72-1.61,1.61v1.4c-.19,.07-.37,.15-.56,.23l-.99-.99c-.63-.63-1.65-.63-2.27,0L2.25,6.72c-.63,.63-.63,1.65,0,2.27l.99,.99c-.08,.18-.16,.37-.23,.55H1.61c-.89,0-1.61,.72-1.61,1.61v6.32c0,.89,.72,1.61,1.61,1.61h1.4c.07,.19,.15,.37,.23,.56l-.99,.99c-.63,.63-.63,1.65,0,2.27l4.47,4.47c.63,.63,1.65,.63,2.27,0l.99-.99c.18,.08,.37,.16,.56,.23v1.4c0,.89,.72,1.61,1.61,1.61h6.32c.89,0,1.61-.72,1.61-1.61v-1.4c.19-.07,.37-.15,.56-.23l.99,.99c.63,.63,1.65,.63,2.27,0l4.47-4.47c.3-.3,.47-.71,.47-1.14s-.17-.83-.47-1.14l-.99-.99c.08-.18,.16-.37,.23-.56h1.4c.89,0,1.61-.72,1.61-1.61v-6.32c0-.89-.72-1.61-1.61-1.61ZM12.58,24.89c-.74-.21-1.46-.51-2.14-.88-.63-.35-1.42-.24-1.93,.27l-.66,.66-2.2-2.19,.66-.66c.51-.51,.62-1.3,.27-1.93-.38-.68-.67-1.4-.88-2.14-.2-.68-.83-1.16-1.54-1.16h-.95v-3.1h.95c.72,0,1.35-.48,1.55-1.17,.21-.74,.51-1.46,.88-2.14,.35-.63,.24-1.42-.27-1.93l-.66-.66,2.19-2.2,.66,.66c.51,.51,1.3,.62,1.93,.27,.67-.38,1.39-.67,2.14-.88,.69-.19,1.17-.83,1.17-1.54v-.95h3.11v.95c0,.72,.48,1.35,1.17,1.55,.74,.21,1.46,.51,2.14,.88,.63,.35,1.42,.24,1.93-.26l.67-.66,2.19,2.19-.66,.66c-.51,.51-.62,1.3-.27,1.93,.38,.67,.67,1.39,.88,2.14,.19,.69,.83,1.17,1.55,1.17h.94v3.1h-.95c-.71,0-1.35,.48-1.55,1.17-.21,.74-.51,1.46-.88,2.14-.35,.63-.24,1.42,.26,1.93l.66,.67-2.19,2.19-.67-.66c-.51-.51-1.3-.62-1.93-.27-.67,.38-1.39,.67-2.14,.88-.69,.19-1.17,.83-1.17,1.55v.94h-3.1v-.95c0-.72-.48-1.35-1.17-1.55Z"/>
      <path class="cls-1" d="M21.55,15.3c0-3.44-2.81-6.25-6.25-6.25h0c-3.45,0-6.25,2.8-6.25,6.25s2.8,6.25,6.25,6.25,6.25-2.8,6.25-6.25Zm-9.25,0c0-1.65,1.35-3,3-3s3,1.35,3,3c0,1.65-1.35,3-3,3-1.65,0-3-1.35-3-3Z"/>
    </g>
  </g>
</svg>