<?xml version="1.0" encoding="UTF-8"?>
<svg id="Camada_2" data-name="Camada 2" xmlns="http://www.w3.org/2000/svg" viewBox="0 0 31.25 34.37">
  <defs>
    <style>
      .cls-1 {
        fill: #fff;
        fill-rule: evenodd;
      }
    </style>
  </defs>
  <g id="Camada_1-2" data-name="Camada 1">
    <path class="cls-1" d="M30.63,11.28L16.56,.35c-.62-.47-1.41-.47-1.88,0L.62,11.28c-.47,.31-.62,.78-.62,1.25V29.69c0,2.65,2.03,4.68,4.69,4.68H26.56c2.66,0,4.69-2.03,4.69-4.68V12.52c0-.47-.16-.94-.62-1.25Zm-11.88,7.49v12.49h-6.25v-12.49h6.25Zm7.81,12.49c.94,0,1.56-.62,1.56-1.56V13.3L15.63,3.63,3.13,13.3V29.69c0,.94,.62,1.56,1.56,1.56h4.69v-14.05c0-.94,.62-1.56,1.56-1.56h9.38c.94,0,1.56,.62,1.56,1.56v14.05h4.69Z"/>
  </g>
</svg>