<?xml version="1.0" encoding="UTF-8"?>
<svg id="Camada_2" data-name="Camada 2" xmlns="http://www.w3.org/2000/svg" viewBox="0 0 55.92 55.92">
  <defs>
    <style>
      .cls-1 {
        fill: #fff;
      }

      .cls-2 {
        fill: #b12233;
      }

      .cls-3 {
        fill: #3c3b6d;
      }

      .cls-4 {
        fill: #1a1f21;
      }
    </style>
  </defs>
  <g id="Camada_1-2" data-name="Camada 1">
    <path class="cls-4" d="M9.87,0H46.05c5.45,0,9.87,4.42,9.87,9.87V46.05c0,5.45-4.42,9.87-9.87,9.87H9.87c-5.45,0-9.87-4.42-9.87-9.87V9.87C0,4.42,4.42,0,9.87,0Z"/>
    <g>
      <g>
        <path class="cls-1" d="M45.98,35.05c-.45,1.08-.99,2.1-1.62,3.07H10.68c-.62-.97-1.17-2-1.62-3.07H45.98Z"/>
        <path class="cls-2" d="M46.98,31.98c-.25,1.06-.59,2.09-1,3.08H9.06c-.41-.99-.75-2.01-1-3.08H46.98Z"/>
        <path class="cls-1" d="M47.46,28.9c-.08,1.05-.24,2.08-.48,3.08H8.06c-.24-1-.4-2.03-.48-3.08H47.46Z"/>
        <path class="cls-2" d="M44.37,38.13c-.7,1.11-1.52,2.14-2.43,3.08H13.1c-.91-.94-1.72-1.97-2.43-3.08H44.37Z"/>
        <path class="cls-2" d="M38.17,44.28c-3.08,1.95-6.74,3.08-10.65,3.08s-7.56-1.13-10.65-3.08h21.3Z"/>
        <path class="cls-1" d="M41.94,41.21c-1.12,1.17-2.39,2.21-3.77,3.08H16.87c-1.38-.87-2.64-1.91-3.77-3.08h28.84Z"/>
        <path class="cls-1" d="M41.94,13.52H13.1c1.13-1.17,2.39-2.21,3.77-3.08h21.29c1.38,.87,2.65,1.91,3.77,3.08Z"/>
        <path class="cls-2" d="M38.17,10.44H16.88c.63-.4,1.29-.77,1.97-1.1,.06-.03,.13-.06,.19-.09,.23-.11,.46-.21,.7-.31,.1-.04,.21-.09,.31-.13,2.31-.93,4.82-1.45,7.46-1.45h0c3.91,0,7.56,1.13,10.64,3.08Z"/>
        <path class="cls-2" d="M44.37,16.59H10.68c.18-.27,.36-.55,.55-.81,.01-.02,.03-.04,.05-.07,.56-.77,1.17-1.51,1.83-2.19h28.84c.91,.94,1.72,1.97,2.43,3.07Z"/>
        <path class="cls-2" d="M46.98,22.75H8.06c.25-1.06,.59-2.09,1-3.08H45.98c.41,.99,.75,2.02,1,3.08Z"/>
        <path class="cls-1" d="M45.98,19.67H9.06c.08-.2,.17-.39,.26-.59,.21-.47,.45-.94,.7-1.39,.21-.37,.43-.74,.66-1.1H44.37c.62,.97,1.17,2,1.62,3.08Z"/>
        <path class="cls-1" d="M47.46,25.82H7.58c0-.13,.02-.26,.04-.38,.03-.38,.08-.75,.13-1.12,.08-.53,.18-1.06,.31-1.58H46.98c.24,1,.4,2.03,.48,3.08Z"/>
        <path class="cls-2" d="M47.52,27.36c0,.52-.02,1.03-.06,1.54H7.58c-.04-.51-.06-1.02-.06-1.54s.02-1.03,.06-1.53H47.46c.04,.51,.06,1.02,.06,1.53Z"/>
      </g>
      <g>
        <path class="cls-3" d="M27.52,7.36V28.9H7.58c-.04-.51-.06-1.02-.06-1.54s.02-1.03,.06-1.53c0-.13,.02-.26,.04-.38,.03-.38,.08-.75,.13-1.12,.08-.53,.18-1.06,.31-1.58,.25-1.06,.59-2.09,1-3.08,.08-.2,.17-.39,.26-.59,.21-.47,.45-.94,.7-1.39,.21-.37,.43-.74,.66-1.1,.18-.27,.36-.55,.55-.81,.01-.02,.03-.04,.05-.07,.56-.77,1.17-1.51,1.83-2.19,1.13-1.17,2.39-2.21,3.77-3.08,.63-.4,1.29-.77,1.97-1.1,.06-.03,.13-.06,.19-.09,.23-.11,.46-.21,.7-.31,.1-.04,.21-.09,.31-.13,2.31-.93,4.82-1.45,7.46-1.45Z"/>
        <g>
          <g>
            <polygon class="cls-1" points="24.99 8.39 25.27 9.25 26.18 9.25 25.45 9.79 25.73 10.65 24.99 10.11 24.25 10.65 24.53 9.79 23.8 9.25 24.71 9.25 24.99 8.39"/>
            <path class="cls-1" d="M20.59,10.44l.07,.22-.29-.22-.44-.32-.44,.32-.29,.22,.07-.22,.21-.65-.61-.45c.06-.03,.13-.06,.19-.09h.6l.1-.31c.1-.04,.21-.09,.31-.13l.15,.44h.91l-.73,.54,.21,.65Z"/>
          </g>
          <g>
            <polygon class="cls-1" points="24.99 12.69 25.27 13.56 26.18 13.56 25.45 14.09 25.73 14.96 24.99 14.42 24.25 14.96 24.53 14.09 23.8 13.56 24.71 13.56 24.99 12.69"/>
            <polygon class="cls-1" points="19.93 12.69 20.21 13.56 21.11 13.56 20.38 14.09 20.66 14.96 19.93 14.42 19.19 14.96 19.47 14.09 18.73 13.56 19.64 13.56 19.93 12.69"/>
            <polygon class="cls-1" points="14.86 12.69 15.14 13.56 16.05 13.56 15.32 14.09 15.6 14.96 14.86 14.42 14.12 14.96 14.41 14.09 13.67 13.56 14.58 13.56 14.86 12.69"/>
          </g>
          <g>
            <polygon class="cls-1" points="24.99 17 25.27 17.86 26.18 17.86 25.45 18.4 25.73 19.26 24.99 18.73 24.25 19.26 24.53 18.4 23.8 17.86 24.71 17.86 24.99 17"/>
            <polygon class="cls-1" points="19.93 17 20.21 17.86 21.11 17.86 20.38 18.4 20.66 19.26 19.93 18.73 19.19 19.26 19.47 18.4 18.73 17.86 19.64 17.86 19.93 17"/>
            <polygon class="cls-1" points="14.86 17 15.14 17.86 16.05 17.86 15.32 18.4 15.6 19.26 14.86 18.73 14.12 19.26 14.41 18.4 13.67 17.86 14.58 17.86 14.86 17"/>
            <path class="cls-1" d="M10.26,18.4l.28,.87-.74-.53-.48,.35c.21-.47,.45-.94,.7-1.39l.06,.18h.91l-.73,.53Z"/>
          </g>
          <g>
            <polygon class="cls-1" points="24.99 21.3 25.27 22.17 26.18 22.17 25.45 22.71 25.73 23.57 24.99 23.03 24.25 23.57 24.53 22.71 23.8 22.17 24.71 22.17 24.99 21.3"/>
            <polygon class="cls-1" points="19.93 21.3 20.21 22.17 21.11 22.17 20.38 22.71 20.66 23.57 19.93 23.03 19.19 23.57 19.47 22.71 18.73 22.17 19.64 22.17 19.93 21.3"/>
            <polygon class="cls-1" points="14.86 21.3 15.14 22.17 16.05 22.17 15.32 22.71 15.6 23.57 14.86 23.03 14.12 23.57 14.41 22.71 13.67 22.17 14.58 22.17 14.86 21.3"/>
            <polygon class="cls-1" points="9.8 21.3 10.08 22.17 10.99 22.17 10.25 22.71 10.53 23.57 9.8 23.03 9.06 23.57 9.34 22.71 8.61 22.17 9.52 22.17 9.8 21.3"/>
          </g>
          <g>
            <polygon class="cls-1" points="24.99 25.61 25.27 26.47 26.18 26.47 25.45 27.01 25.73 27.87 24.99 27.34 24.25 27.87 24.53 27.01 23.8 26.47 24.71 26.47 24.99 25.61"/>
            <polygon class="cls-1" points="19.93 25.61 20.21 26.47 21.11 26.47 20.38 27.01 20.66 27.87 19.93 27.34 19.19 27.87 19.47 27.01 18.73 26.47 19.64 26.47 19.93 25.61"/>
            <polygon class="cls-1" points="14.86 25.61 15.14 26.47 16.05 26.47 15.32 27.01 15.6 27.87 14.86 27.34 14.12 27.87 14.41 27.01 13.67 26.47 14.58 26.47 14.86 25.61"/>
            <polygon class="cls-1" points="9.8 25.61 10.08 26.47 10.99 26.47 10.25 27.01 10.53 27.87 9.8 27.34 9.06 27.87 9.34 27.01 8.61 26.47 9.52 26.47 9.8 25.61"/>
          </g>
          <g>
            <polygon class="cls-1" points="22.46 23.45 22.74 24.32 23.65 24.32 22.91 24.85 23.19 25.72 22.46 25.19 21.72 25.72 22 24.85 21.27 24.32 22.18 24.32 22.46 23.45"/>
            <polygon class="cls-1" points="17.39 23.45 17.67 24.32 18.58 24.32 17.85 24.85 18.13 25.72 17.39 25.19 16.66 25.72 16.94 24.85 16.2 24.32 17.11 24.32 17.39 23.45"/>
            <polygon class="cls-1" points="12.33 23.45 12.61 24.32 13.52 24.32 12.79 24.85 13.06 25.72 12.33 25.19 11.59 25.72 11.88 24.85 11.14 24.32 12.05 24.32 12.33 23.45"/>
            <path class="cls-1" d="M7.72,24.85l.28,.87-.39-.28c.03-.38,.08-.75,.13-1.12h.7l-.74,.53Z"/>
          </g>
          <g>
            <polygon class="cls-1" points="22.46 19.15 22.74 20.02 23.65 20.02 22.91 20.55 23.19 21.42 22.46 20.88 21.72 21.42 22 20.55 21.27 20.02 22.18 20.02 22.46 19.15"/>
            <polygon class="cls-1" points="17.39 19.15 17.67 20.02 18.58 20.02 17.85 20.55 18.13 21.42 17.39 20.88 16.66 21.42 16.94 20.55 16.2 20.02 17.11 20.02 17.39 19.15"/>
            <polygon class="cls-1" points="12.33 19.15 12.61 20.02 13.52 20.02 12.79 20.55 13.06 21.42 12.33 20.88 11.59 21.42 11.88 20.55 11.14 20.02 12.05 20.02 12.33 19.15"/>
          </g>
          <g>
            <polygon class="cls-1" points="22.46 14.84 22.74 15.71 23.65 15.71 22.91 16.24 23.19 17.11 22.46 16.58 21.72 17.11 22 16.24 21.27 15.71 22.18 15.71 22.46 14.84"/>
            <polygon class="cls-1" points="17.39 14.84 17.67 15.71 18.58 15.71 17.85 16.24 18.13 17.11 17.39 16.58 16.66 17.11 16.94 16.24 16.2 15.71 17.11 15.71 17.39 14.84"/>
            <path class="cls-1" d="M12.9,16.59l.17,.52-.72-.52h-.02s-.02,0-.02,0l-.71,.52,.17-.52,.11-.35-.65-.47s.03-.04,.05-.07h.77l.28-.87,.28,.87h.91l-.74,.53,.11,.35Z"/>
          </g>
          <g>
            <polygon class="cls-1" points="22.46 10.54 22.74 11.4 23.65 11.4 22.91 11.94 23.19 12.8 22.46 12.27 21.72 12.8 22 11.94 21.27 11.4 22.18 11.4 22.46 10.54"/>
            <polygon class="cls-1" points="17.39 10.54 17.67 11.4 18.58 11.4 17.85 11.94 18.13 12.8 17.39 12.27 16.66 12.8 16.94 11.94 16.2 11.4 17.11 11.4 17.39 10.54"/>
          </g>
        </g>
      </g>
    </g>
  </g>
</svg>