<?xml version="1.0" encoding="UTF-8"?>
<svg id="Camada_2" data-name="Camada 2" xmlns="http://www.w3.org/2000/svg" viewBox="0 0 55.92 55.92">
  <defs>
    <style>
      .cls-1 {
        fill: #fff;
      }

      .cls-2 {
        fill: #fecb17;
      }

      .cls-3 {
        fill: #063397;
      }

      .cls-4 {
        fill: #b12233;
      }

      .cls-5 {
        fill: #3c3b6d;
      }

      .cls-6 {
        fill: #1a1f21;
      }
    </style>
  </defs>
  <g id="Camada_1-2" data-name="Camada 1">
    <path class="cls-6" d="M9.87,0H46.05c5.45,0,9.87,4.42,9.87,9.87V46.05c0,5.45-4.42,9.87-9.87,9.87H9.87c-5.45,0-9.87-4.42-9.87-9.87V9.87C0,4.42,4.42,0,9.87,0Z"/>
    <g>
      <g>
        <circle class="cls-3" cx="19.63" cy="27.56" r="16.5"/>
        <g>
          <g>
            <g>
              <polygon class="cls-2" points="14.85 34.4 15.2 35.5 16.36 35.5 15.42 36.18 15.78 37.28 14.85 36.6 13.91 37.28 14.27 36.18 13.33 35.5 14.49 35.5 14.85 34.4"/>
              <polygon class="cls-2" points="24.41 34.4 24.77 35.5 25.93 35.5 24.99 36.18 25.35 37.28 24.41 36.6 23.48 37.28 23.83 36.18 22.89 35.5 24.05 35.5 24.41 34.4"/>
            </g>
            <g>
              <polygon class="cls-2" points="14.85 17.84 15.2 18.94 16.36 18.94 15.42 19.62 15.78 20.72 14.85 20.04 13.91 20.72 14.27 19.62 13.33 18.94 14.49 18.94 14.85 17.84"/>
              <polygon class="cls-2" points="24.41 17.84 24.77 18.94 25.93 18.94 24.99 19.62 25.35 20.72 24.41 20.04 23.48 20.72 23.83 19.62 22.89 18.94 24.05 18.94 24.41 17.84"/>
            </g>
          </g>
          <g>
            <g>
              <polygon class="cls-2" points="27.91 21.34 28.27 22.44 29.42 22.44 28.49 23.12 28.85 24.22 27.91 23.54 26.97 24.22 27.33 23.12 26.39 22.44 27.55 22.44 27.91 21.34"/>
              <polygon class="cls-2" points="11.35 21.34 11.7 22.44 12.86 22.44 11.93 23.12 12.28 24.22 11.35 23.54 10.41 24.22 10.77 23.12 9.83 22.44 10.99 22.44 11.35 21.34"/>
            </g>
            <g>
              <polygon class="cls-2" points="27.91 30.9 28.27 32 29.42 32 28.49 32.68 28.85 33.78 27.91 33.1 26.97 33.78 27.33 32.68 26.39 32 27.55 32 27.91 30.9"/>
              <polygon class="cls-2" points="11.35 30.9 11.7 32 12.86 32 11.93 32.68 12.28 33.78 11.35 33.1 10.41 33.78 10.77 32.68 9.83 32 10.99 32 11.35 30.9"/>
            </g>
          </g>
          <g>
            <g>
              <polygon class="cls-2" points="19.62 16.56 19.98 17.66 21.14 17.66 20.2 18.34 20.56 19.44 19.62 18.76 18.69 19.44 19.05 18.34 18.11 17.66 19.26 17.66 19.62 16.56"/>
              <polygon class="cls-2" points="19.62 35.68 19.98 36.78 21.14 36.78 20.2 37.46 20.56 38.56 19.62 37.88 18.69 38.56 19.05 37.46 18.11 36.78 19.26 36.78 19.62 35.68"/>
            </g>
            <g>
              <polygon class="cls-2" points="29.19 26.11 29.54 27.21 30.7 27.21 29.76 27.89 30.12 28.99 29.19 28.31 28.25 28.99 28.6 27.89 27.67 27.21 28.83 27.21 29.19 26.11"/>
              <polygon class="cls-2" points="10.07 26.11 10.43 27.21 11.59 27.21 10.65 27.89 11.01 28.99 10.07 28.31 9.13 28.99 9.49 27.89 8.56 27.21 9.71 27.21 10.07 26.11"/>
            </g>
          </g>
        </g>
        <path class="cls-6" d="M54.24,26.18c-.07-.95-.22-1.87-.43-2.77-.22-.95-.53-1.88-.9-2.77-.4-.97-.89-1.89-1.45-2.77-.63-.99-1.37-1.92-2.19-2.77-1.01-1.05-2.15-1.99-3.4-2.77-2.77-1.75-6.06-2.77-9.58-2.77h0c-2.37,0-4.64,.46-6.71,1.3-.09,.04-.19,.07-.28,.11-.21,.09-.42,.19-.63,.28-.06,.03-.12,.06-.17,.08-.61,.3-1.21,.63-1.78,.99-1.24,.78-2.38,1.72-3.4,2.77-.59,.62-1.14,1.28-1.64,1.97-.02,.02-.03,.04-.04,.06-.17,.24-.34,.48-.5,.73-.21,.32-.4,.65-.59,.99-.23,.4-.44,.82-.63,1.25-.09,.18-.16,.36-.23,.53-.37,.89-.67,1.82-.9,2.77-.11,.46-.21,.94-.28,1.42-.05,.34-.09,.67-.12,1.01-.01,.11-.02,.23-.03,.34-.04,.46-.05,.92-.05,1.38s.02,.93,.05,1.39c.07,.94,.22,1.87,.43,2.77,.23,.96,.53,1.88,.9,2.77,.4,.97,.89,1.89,1.45,2.77,.64,1,1.37,1.92,2.19,2.77,1.01,1.05,2.15,1.99,3.39,2.77,2.78,1.75,6.06,2.77,9.58,2.77s6.81-1.02,9.58-2.77c1.24-.78,2.38-1.72,3.39-2.77,.82-.85,1.55-1.77,2.19-2.77,.56-.87,1.05-1.8,1.45-2.77,.37-.89,.68-1.81,.9-2.77,.21-.9,.36-1.83,.43-2.77,.04-.46,.05-.92,.05-1.39s-.02-.92-.05-1.38Z"/>
      </g>
      <g>
        <g>
          <path class="cls-1" d="M51.52,33.91c-.37,.89-.82,1.74-1.33,2.54H22.4c-.51-.8-.96-1.65-1.33-2.54h30.46Z"/>
          <path class="cls-4" d="M52.35,31.37c-.2,.88-.48,1.73-.83,2.54H21.06c-.34-.81-.62-1.66-.83-2.54H52.35Z"/>
          <path class="cls-1" d="M52.75,28.83c-.07,.87-.2,1.71-.4,2.54H20.24c-.2-.83-.33-1.67-.4-2.54H52.75Z"/>
          <path class="cls-4" d="M50.19,36.44c-.58,.91-1.26,1.76-2,2.54H24.4c-.75-.78-1.42-1.63-2-2.54h27.8Z"/>
          <path class="cls-4" d="M45.08,41.52c-2.54,1.61-5.56,2.54-8.78,2.54s-6.24-.93-8.78-2.54h17.57Z"/>
          <path class="cls-1" d="M48.19,38.98c-.93,.97-1.97,1.82-3.11,2.54H27.51c-1.14-.72-2.18-1.57-3.11-2.54h23.79Z"/>
          <path class="cls-1" d="M48.19,16.14H24.4c.93-.97,1.97-1.82,3.11-2.54h17.56c1.14,.72,2.18,1.57,3.11,2.54Z"/>
          <path class="cls-4" d="M45.08,13.6H27.51c.52-.33,1.07-.63,1.63-.91,.05-.02,.1-.05,.16-.07,.19-.09,.38-.17,.58-.26,.09-.04,.17-.07,.26-.1,1.9-.77,3.98-1.2,6.15-1.2h0c3.23,0,6.24,.93,8.78,2.54Z"/>
          <path class="cls-4" d="M50.19,18.67H22.4c.14-.23,.3-.45,.46-.67,.01-.02,.03-.04,.04-.06,.46-.64,.96-1.24,1.51-1.81h23.79c.75,.78,1.42,1.63,2,2.54Z"/>
          <path class="cls-4" d="M52.35,23.75H20.24c.21-.87,.49-1.72,.83-2.54h30.46c.34,.82,.62,1.67,.83,2.54Z"/>
          <path class="cls-1" d="M51.52,21.21H21.06c.07-.16,.14-.33,.22-.49,.18-.39,.37-.77,.58-1.14,.17-.31,.35-.61,.54-.91h27.8c.51,.8,.96,1.65,1.33,2.54Z"/>
          <path class="cls-1" d="M52.75,26.29H19.84c0-.11,.02-.21,.03-.31,.03-.31,.07-.62,.11-.93,.07-.44,.15-.87,.26-1.3H52.35c.2,.82,.33,1.67,.4,2.54Z"/>
          <path class="cls-4" d="M52.79,27.56c0,.43-.01,.85-.05,1.27H19.84c-.03-.42-.05-.84-.05-1.27s.01-.85,.05-1.27H52.75c.03,.42,.05,.84,.05,1.27Z"/>
        </g>
        <g>
          <path class="cls-5" d="M36.29,11.06V28.83H19.84c-.03-.42-.05-.84-.05-1.27s.01-.85,.05-1.27c0-.11,.02-.21,.03-.31,.03-.31,.07-.62,.11-.93,.07-.44,.15-.87,.26-1.3,.21-.87,.49-1.72,.83-2.54,.07-.16,.14-.33,.22-.49,.18-.39,.37-.77,.58-1.14,.17-.31,.35-.61,.54-.91,.14-.23,.3-.45,.46-.67,.01-.02,.03-.04,.04-.06,.46-.64,.96-1.24,1.51-1.81,.93-.97,1.97-1.82,3.11-2.54,.52-.33,1.07-.63,1.63-.91,.05-.02,.1-.05,.16-.07,.19-.09,.38-.17,.58-.26,.09-.04,.17-.07,.26-.1,1.9-.77,3.98-1.2,6.15-1.2Z"/>
          <g>
            <g>
              <polygon class="cls-1" points="34.2 11.91 34.44 12.62 35.19 12.62 34.58 13.06 34.81 13.78 34.2 13.33 33.59 13.78 33.83 13.06 33.22 12.62 33.97 12.62 34.2 11.91"/>
              <path class="cls-1" d="M30.58,13.6l.06,.18-.24-.18-.37-.27-.37,.27-.24,.18,.06-.18,.17-.54-.51-.37c.05-.02,.1-.05,.16-.07h.49l.08-.26c.09-.04,.17-.07,.26-.1l.12,.36h.75l-.6,.44,.17,.54Z"/>
            </g>
            <g>
              <polygon class="cls-1" points="34.2 15.46 34.44 16.17 35.19 16.17 34.58 16.61 34.81 17.33 34.2 16.89 33.59 17.33 33.83 16.61 33.22 16.17 33.97 16.17 34.2 15.46"/>
              <polygon class="cls-1" points="30.03 15.46 30.26 16.17 31.01 16.17 30.4 16.61 30.63 17.33 30.03 16.89 29.42 17.33 29.65 16.61 29.04 16.17 29.79 16.17 30.03 15.46"/>
              <polygon class="cls-1" points="25.85 15.46 26.08 16.17 26.83 16.17 26.22 16.61 26.46 17.33 25.85 16.89 25.24 17.33 25.47 16.61 24.87 16.17 25.62 16.17 25.85 15.46"/>
            </g>
            <g>
              <polygon class="cls-1" points="34.2 19.01 34.44 19.73 35.19 19.73 34.58 20.17 34.81 20.88 34.2 20.44 33.59 20.88 33.83 20.17 33.22 19.73 33.97 19.73 34.2 19.01"/>
              <polygon class="cls-1" points="30.03 19.01 30.26 19.73 31.01 19.73 30.4 20.17 30.63 20.88 30.03 20.44 29.42 20.88 29.65 20.17 29.04 19.73 29.79 19.73 30.03 19.01"/>
              <polygon class="cls-1" points="25.85 19.01 26.08 19.73 26.83 19.73 26.22 20.17 26.46 20.88 25.85 20.44 25.24 20.88 25.47 20.17 24.87 19.73 25.62 19.73 25.85 19.01"/>
              <path class="cls-1" d="M22.05,20.17l.23,.71-.61-.44-.39,.29c.18-.39,.37-.77,.58-1.14l.05,.14h.75l-.6,.44Z"/>
            </g>
            <g>
              <polygon class="cls-1" points="34.2 22.56 34.44 23.28 35.19 23.28 34.58 23.72 34.81 24.43 34.2 23.99 33.59 24.43 33.83 23.72 33.22 23.28 33.97 23.28 34.2 22.56"/>
              <polygon class="cls-1" points="30.03 22.56 30.26 23.28 31.01 23.28 30.4 23.72 30.63 24.43 30.03 23.99 29.42 24.43 29.65 23.72 29.04 23.28 29.79 23.28 30.03 22.56"/>
              <polygon class="cls-1" points="25.85 22.56 26.08 23.28 26.83 23.28 26.22 23.72 26.46 24.43 25.85 23.99 25.24 24.43 25.47 23.72 24.87 23.28 25.62 23.28 25.85 22.56"/>
              <polygon class="cls-1" points="21.67 22.56 21.9 23.28 22.66 23.28 22.04 23.72 22.28 24.43 21.67 23.99 21.06 24.43 21.3 23.72 20.69 23.28 21.44 23.28 21.67 22.56"/>
            </g>
            <g>
              <polygon class="cls-1" points="34.2 26.12 34.44 26.83 35.19 26.83 34.58 27.27 34.81 27.99 34.2 27.54 33.59 27.99 33.83 27.27 33.22 26.83 33.97 26.83 34.2 26.12"/>
              <polygon class="cls-1" points="30.03 26.12 30.26 26.83 31.01 26.83 30.4 27.27 30.63 27.99 30.03 27.54 29.42 27.99 29.65 27.27 29.04 26.83 29.79 26.83 30.03 26.12"/>
              <polygon class="cls-1" points="25.85 26.12 26.08 26.83 26.83 26.83 26.22 27.27 26.46 27.99 25.85 27.54 25.24 27.99 25.47 27.27 24.87 26.83 25.62 26.83 25.85 26.12"/>
              <polygon class="cls-1" points="21.67 26.12 21.9 26.83 22.66 26.83 22.04 27.27 22.28 27.99 21.67 27.54 21.06 27.99 21.3 27.27 20.69 26.83 21.44 26.83 21.67 26.12"/>
            </g>
            <g>
              <polygon class="cls-1" points="32.11 24.34 32.35 25.05 33.1 25.05 32.49 25.49 32.72 26.21 32.11 25.77 31.51 26.21 31.74 25.49 31.13 25.05 31.88 25.05 32.11 24.34"/>
              <polygon class="cls-1" points="27.94 24.34 28.17 25.05 28.92 25.05 28.31 25.49 28.55 26.21 27.94 25.77 27.33 26.21 27.56 25.49 26.95 25.05 27.71 25.05 27.94 24.34"/>
              <polygon class="cls-1" points="23.76 24.34 23.99 25.05 24.74 25.05 24.14 25.49 24.37 26.21 23.76 25.77 23.15 26.21 23.38 25.49 22.78 25.05 23.53 25.05 23.76 24.34"/>
              <path class="cls-1" d="M19.96,25.49l.23,.71-.32-.23c.03-.31,.07-.62,.11-.93h.58l-.61,.44Z"/>
            </g>
            <g>
              <polygon class="cls-1" points="32.11 20.79 32.35 21.5 33.1 21.5 32.49 21.94 32.72 22.66 32.11 22.21 31.51 22.66 31.74 21.94 31.13 21.5 31.88 21.5 32.11 20.79"/>
              <polygon class="cls-1" points="27.94 20.79 28.17 21.5 28.92 21.5 28.31 21.94 28.55 22.66 27.94 22.21 27.33 22.66 27.56 21.94 26.95 21.5 27.71 21.5 27.94 20.79"/>
              <polygon class="cls-1" points="23.76 20.79 23.99 21.5 24.74 21.5 24.14 21.94 24.37 22.66 23.76 22.21 23.15 22.66 23.38 21.94 22.78 21.5 23.53 21.5 23.76 20.79"/>
            </g>
            <g>
              <polygon class="cls-1" points="32.11 17.23 32.35 17.95 33.1 17.95 32.49 18.39 32.72 19.1 32.11 18.66 31.51 19.1 31.74 18.39 31.13 17.95 31.88 17.95 32.11 17.23"/>
              <polygon class="cls-1" points="27.94 17.23 28.17 17.95 28.92 17.95 28.31 18.39 28.55 19.1 27.94 18.66 27.33 19.1 27.56 18.39 26.95 17.95 27.71 17.95 27.94 17.23"/>
              <path class="cls-1" d="M24.23,18.67l.14,.43-.59-.43h-.02s-.02,0-.02,0l-.59,.43,.14-.43,.09-.29-.53-.39s.03-.04,.04-.06h.63l.23-.71,.23,.71h.75l-.61,.44,.09,.29Z"/>
            </g>
            <g>
              <polygon class="cls-1" points="32.11 13.68 32.35 14.39 33.1 14.39 32.49 14.84 32.72 15.55 32.11 15.11 31.51 15.55 31.74 14.84 31.13 14.39 31.88 14.39 32.11 13.68"/>
              <polygon class="cls-1" points="27.94 13.68 28.17 14.39 28.92 14.39 28.31 14.84 28.55 15.55 27.94 15.11 27.33 15.55 27.56 14.84 26.95 14.39 27.71 14.39 27.94 13.68"/>
            </g>
          </g>
        </g>
      </g>
    </g>
  </g>
</svg>