<?xml version="1.0" encoding="UTF-8"?>
<svg id="Camada_2" data-name="Camada 2" xmlns="http://www.w3.org/2000/svg" viewBox="0 0 99.72 99.72">
  <defs>
    <style>
      .cls-1 {
        fill: #28c76f;
      }

      .cls-2 {
        fill: rgba(40, 199, 111, .12);
      }
    </style>
  </defs>
  <g id="Camada_1-2" data-name="Camada 1">
    <g>
      <path class="cls-2" d="M49.86,0h0c27.54,0,49.86,22.32,49.86,49.86h0c0,27.54-22.32,49.86-49.86,49.86h0C22.32,99.72,0,77.4,0,49.86H0C0,22.32,22.32,0,49.86,0Z"/>
      <path class="cls-1" d="M74.79,37.4v12.47c0,1.25-.83,2.08-2.08,2.08s-2.08-.83-2.08-2.08v-7.48l-16.2,16.2c-.83,.83-2.08,.83-2.91,0l-8.93-8.93-14.13,14.13c-.42,.42-.83,.62-1.45,.62s-1.04-.21-1.45-.62c-.83-.83-.83-2.08,0-2.91l15.58-15.58c.83-.83,2.08-.83,2.91,0l8.93,8.93,14.75-14.75h-7.48c-1.25,0-2.08-.83-2.08-2.08s.83-2.08,2.08-2.08h12.47c.21,0,.62,0,.83,.21,.42,.21,.83,.62,1.04,1.04,.21,.21,.21,.62,.21,.83Z"/>
    </g>
  </g>
</svg>