<?xml version="1.0" encoding="UTF-8"?>
<svg id="Camada_2" data-name="Camada 2" xmlns="http://www.w3.org/2000/svg" viewBox="0 0 31.25 31.25">
  <defs>
    <style>
      .cls-1 {
        fill: #ededed;
        fill-rule: evenodd;
      }
    </style>
  </defs>
  <g id="Camada_1-2" data-name="Camada 1">
    <path class="cls-1" d="M1.56,0H12.5c.94,0,1.56,.62,1.56,1.56V12.5c0,.94-.62,1.56-1.56,1.56H1.56c-.94,0-1.56-.62-1.56-1.56V1.56C0,.62,.62,0,1.56,0Zm1.56,10.94h7.81V3.12H3.13v7.81ZM29.69,0h-10.94c-.94,0-1.56,.62-1.56,1.56V12.5c0,.94,.62,1.56,1.56,1.56h10.94c.94,0,1.56-.62,1.56-1.56V1.56c0-.94-.62-1.56-1.56-1.56Zm-9.38,10.94h7.81V3.12h-7.81v7.81Zm9.38,6.25h-10.94c-.94,0-1.56,.62-1.56,1.56v10.94c0,.94,.62,1.56,1.56,1.56h10.94c.94,0,1.56-.62,1.56-1.56v-10.94c0-.94-.62-1.56-1.56-1.56Zm-9.38,10.94h7.81v-7.81h-7.81v7.81Zm-7.81-10.94H1.56c-.94,0-1.56,.62-1.56,1.56v10.94c0,.94,.62,1.56,1.56,1.56H12.5c.94,0,1.56-.62,1.56-1.56v-10.94c0-.94-.62-1.56-1.56-1.56ZM3.13,28.12h7.81v-7.81H3.13v7.81Z"/>
  </g>
</svg>