<?xml version="1.0" encoding="UTF-8"?>
<svg id="Camada_2" data-name="Camada 2" xmlns="http://www.w3.org/2000/svg" viewBox="0 0 200 200">
  <defs>
    <style>
      .cls-1 {
        fill: #1a8dd3;
      }

      .cls-2 {
        fill: #01265b;
      }
    </style>
  </defs>
  <g id="Camada_1-2" data-name="Camada 1">
    <g>
      <circle class="cls-1" cx="100" cy="100" r="100"/>
      <g>
        <path class="cls-2" d="M26.63,121.7v-43.4h9.88v32.49h15.7v10.91H26.63Z"/>
        <path class="cls-2" d="M55.63,121.7v-43.4h9.88v43.4h-9.88Z"/>
        <path class="cls-2" d="M78.13,121.7c-5.22,0-7.82-2.53-7.82-7.59v-27.87c0-5.29,2.61-7.94,7.82-7.94h21.7v10.91h-17.93c-1.14,0-1.71,.57-1.71,1.71v18.16c0,1.14,.57,1.71,1.71,1.71h8.68v-6.51h-5.54v-9.02h15.13v26.44h-22.04Z"/>
        <path class="cls-2" d="M127.64,121.7v-17.82h-13.13v17.82h-9.82v-35.8c0-5.06,2.66-7.59,7.99-7.59h16.84c5.33,0,7.99,2.53,7.99,7.59v35.8h-9.88Zm0-31.06c0-1.14-.57-1.71-1.71-1.71h-9.71c-1.14,0-1.71,.57-1.71,1.71v4.11h13.13v-4.11Z"/>
        <path class="cls-2" d="M164.3,121.7c-.08-.27-.14-.58-.2-.94-.06-.36-.09-.81-.09-1.34v-13.13c0-1.14-.57-1.71-1.71-1.71h-9.94v17.13h-9.88v-43.4h23.35c5.25,0,7.88,2.7,7.88,8.11v6.85c0,3.92-1.6,6.17-4.8,6.74,1.71,.38,2.96,1.09,3.74,2.11,.78,1.03,1.17,2.4,1.17,4.11v12.85c0,.76,.03,1.31,.09,1.66,.06,.34,.12,.67,.2,.97h-9.82Zm-.29-31.06c0-1.14-.57-1.71-1.71-1.71h-9.94v6.45h9.94c1.14,0,1.71-.57,1.71-1.71v-3.03Z"/>
      </g>
    </g>
  </g>
</svg>