<?xml version="1.0" encoding="UTF-8"?>
<svg id="Camada_2" data-name="Camada 2" xmlns="http://www.w3.org/2000/svg" viewBox="0 0 268.87 34.82">
  <defs>
    <style>
      .cls-1 {
        fill: #1a8dd3;
      }

      .cls-2 {
        fill: #f2f2f2;
      }
    </style>
  </defs>
  <g id="Camada_1-2" data-name="Camada 1">
    <g>
      <g>
        <path class="cls-2" d="M187.31,24.69V10.12c0-.92,.46-1.37,1.37-1.37h12.28V0h-15.3c-4.18,0-6.28,2.12-6.28,6.37V28.72c0,4.06,2.09,6.09,6.28,6.09h15.39v-8.75h-12.37c-.92,0-1.37-.46-1.37-1.37Z"/>
        <rect class="cls-2" x="204.78" width="7.93" height="34.82"/>
        <path class="cls-2" d="M232.68,25.52c0,.92-.46,1.37-1.37,1.37h-5.36c-.92,0-1.37-.49-1.37-1.47V7.93h-7.93V28.72c0,4.06,2.14,6.09,6.41,6.09h11.32c4.09,0,6.14-2.09,6.14-6.28V7.93h-7.83V25.52Z"/>
        <path class="cls-2" d="M262.59,7.93h-10.17V0h-7.93V34.82h17.96c4.28,0,6.41-2.03,6.41-6.09V14.25c0-4.21-2.09-6.32-6.28-6.32Zm-1.65,17.5c0,.98-.46,1.47-1.37,1.47h-7.15V15.9h7.15c.92,0,1.37,.46,1.37,1.37v8.15Z"/>
      </g>
      <g>
        <path class="cls-1" d="M21.26,17.41c2.57-.46,3.85-2.26,3.85-5.41V6.51c0-4.34-2.11-6.51-6.32-6.51H0V34.82H18.92c4.18,0,6.28-2.15,6.28-6.46v-5.96c0-1.37-.31-2.47-.94-3.3-.63-.82-1.63-1.39-3-1.7Zm-3.94,7.51c0,.92-.46,1.37-1.37,1.37H7.93v-5.41H15.94c.92,0,1.37,.46,1.37,1.37v2.66Zm0-12.42c0,.92-.46,1.37-1.37,1.37H7.93v-5.36H15.94c.92,0,1.37,.46,1.37,1.37v2.61Z"/>
        <path class="cls-1" d="M30.97,9.51c-1.01,1.05-1.51,2.63-1.51,4.74v20.57h7.97V17.23c0-.92,.46-1.37,1.37-1.37h5.86V7.93h-8.89c-2.2,0-3.8,.53-4.81,1.58Z"/>
        <path class="cls-1" d="M65.48,7.93h-16.86v7.51h13.97c.92,0,1.37,.46,1.37,1.37v2.02c-.49-.21-.99-.32-1.51-.32h-9.03c-3.91,0-5.86,2.08-5.86,6.23v3.99c0,4.06,1.95,6.09,5.86,6.09h12.28c4.12,0,6.18-2.11,6.18-6.32V14.25c0-4.21-2.14-6.32-6.41-6.32Zm-1.51,17.45c0,.61-.31,.92-.92,.92h-6.69c-.61,0-.92-.3-.92-.92v-1.88c0-.61,.3-.92,.92-.92h6.69c.61,0,.92,.31,.92,.92v1.88Z"/>
        <polygon class="cls-1" points="87.85 23.41 82.36 7.93 73.79 7.93 83.96 34.82 91.47 34.82 101.96 7.93 93.35 7.93 87.85 23.41"/>
        <path class="cls-1" d="M133.82,9.51c-1.01,1.05-1.51,2.63-1.51,4.74v20.57h7.97V17.23c0-.92,.46-1.37,1.37-1.37h5.86V7.93h-8.89c-2.2,0-3.8,.53-4.81,1.58Z"/>
        <path class="cls-1" d="M170.08,18.55h-10.08c-.52,0-.78-.24-.78-.73v-1.6c0-.55,.26-.82,.78-.82h15.03V7.93h-17.32c-4.15,0-6.23,2.09-6.23,6.28v4.08c0,2.02,.39,3.5,1.17,4.44,.78,.95,2.21,1.42,4.28,1.42h10.03c.52,0,.78,.24,.78,.73v1.6c0,.55-.26,.82-.78,.82h-15.16v7.51h18.28c3.79,0,5.68-2.11,5.68-6.32v-4.17c0-3.85-1.89-5.77-5.68-5.77Z"/>
        <path class="cls-1" d="M122.42,7.93h-12.28c-4.12,0-6.18,2.11-6.18,6.32v14.25c0,4.21,2.14,6.32,6.41,6.32h16.86v-7.51h-13.97c-.92,0-1.37-.46-1.37-1.37v-2.02c.49,.21,.99,.32,1.51,.32h9.03c3.91,0,5.86-2.08,5.86-6.23v-3.99c0-4.06-1.95-6.09-5.86-6.09Zm-2.02,11.32c0,.61-.3,.92-.92,.92h-6.69c-.61,0-.92-.31-.92-.92v-1.88c0-.61,.31-.92,.92-.92h6.69c.61,0,.92,.3,.92,.92v1.88Z"/>
      </g>
    </g>
  </g>
</svg>