<?xml version="1.0" encoding="UTF-8"?>
<svg id="Camada_2" data-name="Camada 2" xmlns="http://www.w3.org/2000/svg" viewBox="0 0 99.72 99.72">
  <defs>
    <style>
      .cls-1 {
        fill: #28c76f;
        fill-rule: evenodd;
      }

      .cls-2 {
        fill: rgba(40, 199, 111, .12);
      }
    </style>
  </defs>
  <g id="Camada_1-2" data-name="Camada 1">
    <g>
      <path class="cls-2" d="M49.86,0h0c27.54,0,49.86,22.32,49.86,49.86h0c0,27.54-22.32,49.86-49.86,49.86h0C22.32,99.72,0,77.4,0,49.86H0C0,22.32,22.32,0,49.86,0Z"/>
      <path class="cls-1" d="M55.06,47.78h-3.12v-10.39h8.31c1.25,0,2.08-.83,2.08-2.08s-.83-2.08-2.08-2.08h-8.31v-6.23c0-1.25-.83-2.08-2.08-2.08s-2.08,.83-2.08,2.08v6.23h-3.12c-5.19,0-9.35,4.16-9.35,9.35s4.16,9.35,9.35,9.35h3.12v10.39h-10.39c-1.25,0-2.08,.83-2.08,2.08s.83,2.08,2.08,2.08h10.39v6.23c0,1.25,.83,2.08,2.08,2.08s2.08-.83,2.08-2.08v-6.23h3.12c5.19,0,9.35-4.16,9.35-9.35s-4.16-9.35-9.35-9.35Zm-10.39,0c-2.91,0-5.19-2.29-5.19-5.19s2.29-5.19,5.19-5.19h3.12v10.39h-3.12Zm7.27,14.54h3.12c2.91,0,5.19-2.29,5.19-5.19s-2.29-5.19-5.19-5.19h-3.12v10.39Z"/>
    </g>
  </g>
</svg>