<?xml version="1.0" encoding="UTF-8"?>
<svg id="Camada_2" data-name="Camada 2" xmlns="http://www.w3.org/2000/svg" viewBox="0 0 37.5 35.94">
  <defs>
    <style>
      .cls-1 {
        fill: #ededed;
        fill-rule: evenodd;
      }
    </style>
  </defs>
  <g id="Camada_1-2" data-name="Camada 1">
    <path class="cls-1" d="M6.53,3.13H1.56c-.86,0-1.56-.7-1.56-1.56S.7,0,1.56,0H7.81c.74,0,1.39,.53,1.53,1.26l1.31,6.56h25.28c.98,0,1.72,.89,1.53,1.85l-2.5,13.12c-.44,2.23-2.42,3.82-4.66,3.77H15.15c-2.27,.04-4.25-1.55-4.69-3.77l-2.61-13.04s-.02-.09-.03-.13l-1.3-6.49Zm4.41,29.69c0,1.88,1.25,3.13,3.12,3.13s3.12-1.25,3.12-3.13-1.25-3.13-3.12-3.13-3.12,1.25-3.12,3.13Zm17.19,0c0,1.88,1.25,3.13,3.12,3.13s3.12-1.25,3.12-3.13-1.25-3.12-3.12-3.12-3.12,1.25-3.12,3.12Zm-14.59-10.63l-2.25-11.24h22.77l-2.15,11.25c-.15,.73-.8,1.26-1.56,1.25H15.12c-.79,.01-1.44-.51-1.59-1.26Z"/>
  </g>
</svg>