<?xml version="1.0" encoding="UTF-8"?>
<svg id="Camada_2" data-name="Camada 2" xmlns="http://www.w3.org/2000/svg" viewBox="0 0 36.71 26.93">
  <defs>
    <style>
      .cls-1 {
        fill: #ededed;
      }
    </style>
  </defs>
  <g id="Camada_1-2" data-name="Camada 1">
    <g>
      <path class="cls-1" d="M11.48,20.35c-1.84-1.84-2.85-4.28-2.85-6.88s1.01-5.05,2.85-6.88c.63-.63,.63-1.66,0-2.29-.61-.61-1.68-.61-2.29,0-2.45,2.45-3.8,5.71-3.8,9.17s1.35,6.73,3.8,9.17c.31,.31,.71,.48,1.14,.48s.84-.17,1.14-.48c.63-.63,.63-1.66,0-2.29h0Z"/>
      <path class="cls-1" d="M7.67,24.16c-2.86-2.86-4.43-6.66-4.43-10.7S4.81,5.62,7.67,2.76c.63-.63,.63-1.66,0-2.29-.63-.63-1.66-.63-2.29,0C1.91,3.94,0,8.56,0,13.46s1.91,9.52,5.38,12.99c.31,.31,.71,.47,1.14,.47s.84-.17,1.14-.47c.63-.63,.63-1.66,0-2.29h0Z"/>
      <path class="cls-1" d="M27.53,4.29c-.61-.61-1.68-.61-2.29,0-.63,.63-.63,1.66,0,2.29,1.84,1.84,2.85,4.28,2.85,6.88s-1.01,5.05-2.85,6.88c-.63,.63-.63,1.66,0,2.29,.31,.31,.71,.47,1.15,.47s.84-.17,1.14-.47c2.45-2.45,3.8-5.71,3.8-9.17s-1.35-6.72-3.8-9.17Z"/>
      <path class="cls-1" d="M18.36,5.88c-4.18,0-7.58,3.4-7.58,7.58s3.4,7.58,7.58,7.58,7.58-3.4,7.58-7.58-3.4-7.58-7.58-7.58Zm4.34,7.58c0,2.39-1.95,4.34-4.34,4.34s-4.34-1.95-4.34-4.34,1.95-4.34,4.34-4.34,4.34,1.95,4.34,4.34Z"/>
      <path class="cls-1" d="M31.34,.47c-.61-.61-1.68-.61-2.29,0-.63,.63-.63,1.66,0,2.29,2.86,2.86,4.43,6.66,4.43,10.7s-1.57,7.84-4.43,10.7c-.63,.63-.63,1.66,0,2.29,.31,.31,.71,.47,1.14,.47s.84-.17,1.15-.47c3.47-3.47,5.38-8.08,5.38-12.99S34.8,3.94,31.34,.47Z"/>
    </g>
  </g>
</svg>