<?xml version="1.0" encoding="UTF-8"?>
<svg id="Camada_2" data-name="Camada 2" xmlns="http://www.w3.org/2000/svg" viewBox="0 0 55.92 55.92">
  <defs>
    <style>
      .cls-1 {
        fill: #00247d;
      }

      .cls-2 {
        fill: #fff;
      }

      .cls-3 {
        fill: #cb142a;
      }

      .cls-4 {
        fill: #b12233;
      }

      .cls-5 {
        fill: #3c3b6d;
      }

      .cls-6 {
        fill: #1a1f21;
      }
    </style>
  </defs>
  <g id="Camada_1-2" data-name="Camada 1">
    <path class="cls-6" d="M9.87,0H46.05c5.45,0,9.87,4.42,9.87,9.87V46.05c0,5.45-4.42,9.87-9.87,9.87H9.87c-5.45,0-9.87-4.42-9.87-9.87V9.87C0,4.42,4.42,0,9.87,0Z"/>
    <g>
      <g>
        <g>
          <path class="cls-2" d="M34.86,33.86c-.37,.89-.82,1.74-1.33,2.54H5.73c-.51-.8-.96-1.65-1.33-2.54h30.46Z"/>
          <path class="cls-4" d="M35.68,31.32c-.2,.88-.48,1.73-.83,2.54H4.4c-.34-.81-.62-1.66-.83-2.54H35.68Z"/>
          <path class="cls-2" d="M36.08,28.78c-.07,.87-.2,1.71-.4,2.54H3.57c-.2-.83-.33-1.67-.4-2.54H36.08Z"/>
          <path class="cls-4" d="M33.52,36.39c-.58,.91-1.26,1.76-2,2.54H7.73c-.75-.78-1.42-1.63-2-2.54h27.8Z"/>
          <path class="cls-4" d="M28.41,41.47c-2.54,1.61-5.56,2.54-8.78,2.54s-6.24-.93-8.78-2.54H28.41Z"/>
          <path class="cls-2" d="M31.52,38.93c-.93,.97-1.97,1.82-3.11,2.54H10.84c-1.14-.72-2.18-1.57-3.11-2.54H31.52Z"/>
          <path class="cls-2" d="M31.52,16.09H7.73c.93-.97,1.97-1.82,3.11-2.54H28.41c1.14,.72,2.18,1.57,3.11,2.54Z"/>
          <path class="cls-4" d="M28.41,13.55H10.85c.52-.33,1.07-.63,1.63-.91,.05-.02,.1-.05,.16-.07,.19-.09,.38-.17,.58-.26,.09-.04,.17-.07,.26-.1,1.9-.77,3.98-1.2,6.15-1.2h0c3.23,0,6.24,.93,8.78,2.54Z"/>
          <path class="cls-4" d="M33.52,18.62H5.73c.14-.23,.3-.45,.46-.67,.01-.02,.03-.04,.04-.06,.46-.64,.96-1.24,1.51-1.81H31.52c.75,.78,1.42,1.63,2,2.54Z"/>
          <path class="cls-4" d="M35.68,23.7H3.57c.21-.87,.49-1.72,.83-2.54h30.46c.34,.82,.62,1.67,.83,2.54Z"/>
          <path class="cls-2" d="M34.86,21.16H4.4c.07-.16,.14-.33,.22-.49,.18-.39,.37-.77,.58-1.14,.17-.31,.35-.61,.54-.91h27.8c.51,.8,.96,1.65,1.33,2.54Z"/>
          <path class="cls-2" d="M36.08,26.24H3.18c0-.11,.02-.21,.03-.31,.03-.31,.07-.62,.11-.93,.07-.44,.15-.87,.26-1.3H35.68c.2,.82,.33,1.67,.4,2.54Z"/>
          <path class="cls-4" d="M36.13,27.51c0,.43-.01,.85-.05,1.27H3.18c-.03-.42-.05-.84-.05-1.27s.01-.85,.05-1.27H36.08c.03,.42,.05,.84,.05,1.27Z"/>
        </g>
        <g>
          <path class="cls-5" d="M19.62,11.01V28.78H3.18c-.03-.42-.05-.84-.05-1.27s.01-.85,.05-1.27c0-.11,.02-.21,.03-.31,.03-.31,.07-.62,.11-.93,.07-.44,.15-.87,.26-1.3,.21-.87,.49-1.72,.83-2.54,.07-.16,.14-.33,.22-.49,.18-.39,.37-.77,.58-1.14,.17-.31,.35-.61,.54-.91,.14-.23,.3-.45,.46-.67,.01-.02,.03-.04,.04-.06,.46-.64,.96-1.24,1.51-1.81,.93-.97,1.97-1.82,3.11-2.54,.52-.33,1.07-.63,1.63-.91,.05-.02,.1-.05,.16-.07,.19-.09,.38-.17,.58-.26,.09-.04,.17-.07,.26-.1,1.9-.77,3.98-1.2,6.15-1.2Z"/>
          <g>
            <g>
              <polygon class="cls-2" points="17.54 11.85 17.77 12.57 18.52 12.57 17.91 13.01 18.15 13.72 17.54 13.28 16.93 13.72 17.16 13.01 16.55 12.57 17.31 12.57 17.54 11.85"/>
              <path class="cls-2" d="M13.91,13.55l.06,.18-.24-.18-.37-.27-.37,.27-.24,.18,.06-.18,.17-.54-.51-.37c.05-.02,.1-.05,.16-.07h.49l.08-.26c.09-.04,.17-.07,.26-.1l.12,.36h.75l-.6,.44,.17,.54Z"/>
            </g>
            <g>
              <polygon class="cls-2" points="17.54 15.4 17.77 16.12 18.52 16.12 17.91 16.56 18.15 17.27 17.54 16.83 16.93 17.27 17.16 16.56 16.55 16.12 17.31 16.12 17.54 15.4"/>
              <polygon class="cls-2" points="13.36 15.4 13.59 16.12 14.34 16.12 13.73 16.56 13.97 17.27 13.36 16.83 12.75 17.27 12.99 16.56 12.37 16.12 13.13 16.12 13.36 15.4"/>
              <polygon class="cls-2" points="9.18 15.4 9.41 16.12 10.17 16.12 9.56 16.56 9.79 17.27 9.18 16.83 8.57 17.27 8.81 16.56 8.2 16.12 8.95 16.12 9.18 15.4"/>
            </g>
            <g>
              <polygon class="cls-2" points="17.54 18.96 17.77 19.67 18.52 19.67 17.91 20.11 18.15 20.83 17.54 20.39 16.93 20.83 17.16 20.11 16.55 19.67 17.31 19.67 17.54 18.96"/>
              <polygon class="cls-2" points="13.36 18.96 13.59 19.67 14.34 19.67 13.73 20.11 13.97 20.83 13.36 20.39 12.75 20.83 12.99 20.11 12.37 19.67 13.13 19.67 13.36 18.96"/>
              <polygon class="cls-2" points="9.18 18.96 9.41 19.67 10.17 19.67 9.56 20.11 9.79 20.83 9.18 20.39 8.57 20.83 8.81 20.11 8.2 19.67 8.95 19.67 9.18 18.96"/>
              <path class="cls-2" d="M5.38,20.11l.23,.71-.61-.44-.39,.29c.18-.39,.37-.77,.58-1.14l.05,.14h.75l-.6,.44Z"/>
            </g>
            <g>
              <polygon class="cls-2" points="17.54 22.51 17.77 23.22 18.52 23.22 17.91 23.67 18.15 24.38 17.54 23.94 16.93 24.38 17.16 23.67 16.55 23.22 17.31 23.22 17.54 22.51"/>
              <polygon class="cls-2" points="13.36 22.51 13.59 23.22 14.34 23.22 13.73 23.67 13.97 24.38 13.36 23.94 12.75 24.38 12.99 23.67 12.37 23.22 13.13 23.22 13.36 22.51"/>
              <polygon class="cls-2" points="9.18 22.51 9.41 23.22 10.17 23.22 9.56 23.67 9.79 24.38 9.18 23.94 8.57 24.38 8.81 23.67 8.2 23.22 8.95 23.22 9.18 22.51"/>
              <polygon class="cls-2" points="5 22.51 5.24 23.22 5.99 23.22 5.38 23.67 5.61 24.38 5 23.94 4.4 24.38 4.63 23.67 4.02 23.22 4.77 23.22 5 22.51"/>
            </g>
            <g>
              <polygon class="cls-2" points="17.54 26.06 17.77 26.78 18.52 26.78 17.91 27.22 18.15 27.93 17.54 27.49 16.93 27.93 17.16 27.22 16.55 26.78 17.31 26.78 17.54 26.06"/>
              <polygon class="cls-2" points="13.36 26.06 13.59 26.78 14.34 26.78 13.73 27.22 13.97 27.93 13.36 27.49 12.75 27.93 12.99 27.22 12.37 26.78 13.13 26.78 13.36 26.06"/>
              <polygon class="cls-2" points="9.18 26.06 9.41 26.78 10.17 26.78 9.56 27.22 9.79 27.93 9.18 27.49 8.57 27.93 8.81 27.22 8.2 26.78 8.95 26.78 9.18 26.06"/>
              <polygon class="cls-2" points="5 26.06 5.24 26.78 5.99 26.78 5.38 27.22 5.61 27.93 5 27.49 4.4 27.93 4.63 27.22 4.02 26.78 4.77 26.78 5 26.06"/>
            </g>
            <g>
              <polygon class="cls-2" points="15.45 24.29 15.68 25 16.43 25 15.83 25.44 16.05 26.16 15.45 25.71 14.84 26.16 15.07 25.44 14.47 25 15.22 25 15.45 24.29"/>
              <polygon class="cls-2" points="11.27 24.29 11.5 25 12.25 25 11.65 25.44 11.88 26.16 11.27 25.71 10.66 26.16 10.89 25.44 10.29 25 11.04 25 11.27 24.29"/>
              <polygon class="cls-2" points="7.09 24.29 7.33 25 8.08 25 7.47 25.44 7.7 26.16 7.09 25.71 6.48 26.16 6.72 25.44 6.11 25 6.86 25 7.09 24.29"/>
              <path class="cls-2" d="M3.29,25.44l.23,.71-.32-.23c.03-.31,.07-.62,.11-.93h.58l-.61,.44Z"/>
            </g>
            <g>
              <polygon class="cls-2" points="15.45 20.74 15.68 21.45 16.43 21.45 15.83 21.89 16.05 22.61 15.45 22.16 14.84 22.61 15.07 21.89 14.47 21.45 15.22 21.45 15.45 20.74"/>
              <polygon class="cls-2" points="11.27 20.74 11.5 21.45 12.25 21.45 11.65 21.89 11.88 22.61 11.27 22.16 10.66 22.61 10.89 21.89 10.29 21.45 11.04 21.45 11.27 20.74"/>
              <polygon class="cls-2" points="7.09 20.74 7.33 21.45 8.08 21.45 7.47 21.89 7.7 22.61 7.09 22.16 6.48 22.61 6.72 21.89 6.11 21.45 6.86 21.45 7.09 20.74"/>
            </g>
            <g>
              <polygon class="cls-2" points="15.45 17.18 15.68 17.9 16.43 17.9 15.83 18.34 16.05 19.05 15.45 18.61 14.84 19.05 15.07 18.34 14.47 17.9 15.22 17.9 15.45 17.18"/>
              <polygon class="cls-2" points="11.27 17.18 11.5 17.9 12.25 17.9 11.65 18.34 11.88 19.05 11.27 18.61 10.66 19.05 10.89 18.34 10.29 17.9 11.04 17.9 11.27 17.18"/>
              <path class="cls-2" d="M7.56,18.62l.14,.43-.59-.43h-.02s-.02,0-.02,0l-.59,.43,.14-.43,.09-.29-.53-.39s.03-.04,.04-.06h.63l.23-.71,.23,.71h.75l-.61,.44,.09,.29Z"/>
            </g>
            <g>
              <polygon class="cls-2" points="15.45 13.63 15.68 14.34 16.43 14.34 15.83 14.79 16.05 15.5 15.45 15.06 14.84 15.5 15.07 14.79 14.47 14.34 15.22 14.34 15.45 13.63"/>
              <polygon class="cls-2" points="11.27 13.63 11.5 14.34 12.25 14.34 11.65 14.79 11.88 15.5 11.27 15.06 10.66 15.5 10.89 14.79 10.29 14.34 11.04 14.34 11.27 13.63"/>
            </g>
          </g>
        </g>
      </g>
      <circle class="cls-6" cx="36.67" cy="27.4" r="18"/>
    </g>
    <g>
      <path class="cls-1" d="M49.76,17.36c-3.02-3.93-7.76-6.46-13.09-6.46s-10.07,2.54-13.09,6.46c-.29,.38-.56,.77-.82,1.17-.18,.28-.35,.57-.51,.87-.11,.19-.21,.39-.31,.59-.05,.1-.1,.2-.15,.3-.07,.14-.13,.28-.2,.43-.1,.22-.19,.44-.28,.67-.26,.65-.47,1.32-.64,2.01-.06,.22-.11,.44-.16,.67-.08,.38-.14,.77-.2,1.16-.05,.39-.09,.78-.11,1.17-.01,.25-.02,.51-.03,.77,0,.08,0,.16,0,.24,0,3.77,1.27,7.26,3.41,10.04,3.02,3.93,7.76,6.46,13.09,6.46s10.07-2.54,13.09-6.46c2.14-2.79,3.41-6.27,3.41-10.04s-1.27-7.25-3.41-10.04Z"/>
      <g>
        <path class="cls-1" d="M22.63,24.05l-2.32,1.16c.05-.39,.12-.78,.2-1.16h2.13Z"/>
        <path class="cls-1" d="M26.54,17.36v3.06l-3.79-1.9c.26-.4,.53-.79,.82-1.17h2.96Z"/>
        <path class="cls-1" d="M22.63,20.71h-1.05c.06-.14,.13-.29,.2-.43l.85,.43Z"/>
        <polygon class="cls-1" points="38.25 20.71 38.25 18.48 33.79 20.71 38.25 20.71"/>
        <polygon class="cls-1" points="36 17.36 29.89 17.36 29.89 20.42 36 17.36"/>
        <polygon class="cls-1" points="38.25 26.28 38.25 24.05 33.79 24.05 38.25 26.28"/>
        <polygon class="cls-1" points="20.43 27.4 26.54 27.4 26.54 24.34 20.43 27.4"/>
        <polygon class="cls-1" points="29.89 27.4 36 27.4 29.89 24.34 29.89 27.4"/>
        <path class="cls-2" d="M38.25,18.48l-4.46,2.23h4.46v3.34h-4.46l4.46,2.23v.38l-5.21-2.61h-1.5l6.69,3.34h-2.23l-6.11-3.06v3.06h-3.34v-3.06l-6.11,3.06h-.26c0-.08,0-.16,0-.24l6.2-3.1h-1.5l-4.67,2.33c.03-.4,.06-.79,.11-1.17l2.32-1.16h-2.13c.05-.23,.1-.45,.16-.67,.17-.69,.39-1.36,.64-2.01,.09-.22,.19-.44,.28-.67h1.05l-.85-.43c.05-.1,.1-.2,.15-.3l1.45,.72h1.5l-2.63-1.31c.16-.29,.34-.59,.51-.87l3.79,1.9v-3.06h3.34v3.06l6.11-3.06h.74l-6.69,3.35h1.5l6.69-3.35h.01v1.12Z"/>
        <path class="cls-3" d="M24.88,20.71h-1.5l-1.45-.72c.1-.2,.2-.4,.31-.59l2.63,1.31Z"/>
        <polygon class="cls-3" points="31.54 24.05 38.23 27.4 38.25 27.4 38.25 26.66 33.04 24.05 31.54 24.05"/>
        <polygon class="cls-3" points="30.05 20.71 31.55 20.71 38.24 17.36 36.74 17.36 30.05 20.71"/>
        <path class="cls-3" d="M26.37,24.05l-6.2,3.1c0-.26,.01-.51,.03-.77l4.67-2.33h1.5Z"/>
        <path class="cls-3" d="M38.25,21.37v2.01h-9.03v4.01h-2.01v-4.01h-6.55c.17-.69,.39-1.36,.64-2.01h5.91v-4.01h2.01v4.01h9.03Z"/>
      </g>
      <g>
        <g>
          <polygon class="cls-3" points="45.94 34.03 45.05 34.65 45.37 33.61 44.5 32.96 45.59 32.94 45.94 31.92 46.3 32.94 47.37 32.96 46.52 33.61 46.83 34.65 45.94 34.03"/>
          <path class="cls-2" d="M47.65,32.87l-1.29-.03-.42-1.21-.42,1.21-1.29,.03,1.02,.78-.37,1.23,1.06-.73,1.06,.73-.37-1.23,1.03-.78Zm-1.71,1.04l-.72,.5,.25-.84-.7-.53,.87-.02,.29-.83,.29,.83,.87,.02-.7,.53,.26,.84-.72-.5Z"/>
        </g>
        <g>
          <polygon class="cls-3" points="45.94 21.9 45.14 22.46 45.42 21.53 44.64 20.94 45.62 20.92 45.94 20 46.26 20.92 47.23 20.94 46.46 21.53 46.74 22.46 45.94 21.9"/>
          <path class="cls-2" d="M47.51,20.85l-1.18-.02-.39-1.11-.39,1.11-1.18,.02,.94,.71-.34,1.13,.97-.67,.97,.67-.34-1.13,.94-.71Zm-1.57,.94l-.63,.44,.23-.73-.61-.47h.77s.26-.74,.26-.74l.25,.73h.77s-.61,.48-.61,.48l.22,.73-.63-.44Z"/>
        </g>
        <g>
          <polygon class="cls-3" points="41.27 26.6 40.46 27.17 40.74 26.22 39.96 25.62 40.94 25.6 41.27 24.67 41.59 25.6 42.58 25.62 41.79 26.22 42.08 27.17 41.27 26.6"/>
          <path class="cls-2" d="M42.85,25.53l-1.19-.02-.39-1.13-.39,1.13-1.19,.02,.95,.72-.35,1.14,.98-.68,.98,.68-.34-1.14,.95-.72Zm-1.58,.95l-.64,.45,.23-.75-.62-.47h.78s.26-.76,.26-.76l.26,.74h.78s-.62,.49-.62,.49l.23,.75-.64-.45Z"/>
        </g>
        <g>
          <polygon class="cls-3" points="49.9 25.33 49.2 25.83 49.44 25 48.76 24.48 49.62 24.47 49.9 23.65 50.19 24.47 51.05 24.48 50.36 25 50.61 25.83 49.9 25.33"/>
          <path class="cls-2" d="M51.32,24.39l-1.07-.02-.35-1.01-.35,1.01-1.07,.02,.85,.64-.31,1.02,.88-.61,.87,.61-.31-1.02,.85-.64Zm-1.41,.83l-.54,.38,.19-.63-.52-.4h.66s.21-.63,.21-.63l.22,.62h.66s-.52,.41-.52,.41l.19,.63-.54-.38Z"/>
        </g>
      </g>
    </g>
  </g>
</svg>