<?xml version="1.0" encoding="UTF-8"?>
<svg id="Camada_2" data-name="Camada 2" xmlns="http://www.w3.org/2000/svg" viewBox="0 0 28.12 34.38">
  <defs>
    <style>
      .cls-1 {
        fill: #ededed;
        fill-rule: evenodd;
      }
    </style>
  </defs>
  <g id="Camada_1-2" data-name="Camada 1">
    <path class="cls-1" d="M27.81,10.08c.04,.08,.08,.15,.16,.23,.16,.16,.16,.47,.16,.62V29.69c0,2.66-2.03,4.69-4.69,4.69H4.69c-2.66,0-4.69-2.03-4.69-4.69V4.69C0,2.03,2.03,0,4.69,0h12.5c.16,0,.47,0,.62,.16,.16,0,.31,.16,.47,.31l9.38,9.38c.08,.08,.12,.16,.16,.24Zm-5-.7l-4.06-4.06v4.06h4.06Zm.62,21.88H4.69c-.94,0-1.56-.62-1.56-1.56V4.69c0-.94,.62-1.56,1.56-1.56H15.62v7.81c0,.94,.62,1.56,1.56,1.56h7.81V29.69c0,.94-.62,1.56-1.56,1.56Zm-3.13-10.94c.94,0,1.56-.62,1.56-1.56s-.62-1.56-1.56-1.56H7.81c-.94,0-1.56,.62-1.56,1.56s.62,1.56,1.56,1.56h12.5Zm1.56,4.69c0,.94-.62,1.56-1.56,1.56H7.81c-.94,0-1.56-.62-1.56-1.56s.62-1.56,1.56-1.56h12.5c.94,0,1.56,.62,1.56,1.56ZM7.81,10.94c-.94,0-1.56,.62-1.56,1.56s.62,1.56,1.56,1.56h3.13c.94,0,1.56-.62,1.56-1.56s-.62-1.56-1.56-1.56h-3.13Z"/>
  </g>
</svg>