<?xml version="1.0" encoding="UTF-8"?>
<svg id="Camada_2" data-name="Camada 2" xmlns="http://www.w3.org/2000/svg" viewBox="0 0 38.32 34.38">
  <defs>
    <style>
      .cls-1 {
        fill: #fff;
      }
    </style>
  </defs>
  <g id="Camada_1-2" data-name="Camada 1">
    <path class="cls-1" d="M6.76,18.18c1.18,4.01,4.3,7.25,8.26,8.59l-1.06,4.4h-4.47l-1.1,3.21H29.92l-1.1-3.21h-4.47l-1.06-4.4c3.96-1.34,7.07-4.58,8.26-8.59,3.82-.52,6.76-3.81,6.76-7.65V2.81h-6.24V0H6.24V2.81H0v7.72c0,3.83,2.94,7.13,6.76,7.65Zm25.31-9.95c0-.92,0-1.71,0-2.19h3.02v4.5c0,1.9-1.24,3.58-3.03,4.22,.02-.94,.02-2.86,0-6.53Zm-14.8,22.94l.9-3.76c.65,.05,1.31,.05,1.96,0l.9,3.76h-3.77ZM9.46,3.22H28.86V14.52c-.28,6.63-5.22,9.66-9.7,9.66h0c-4.48,0-9.42-3.03-9.7-9.65V3.22ZM3.22,6.04h3.02c0,.41,0,1.04,0,1.79,0,4.05,0,5.99,.02,6.94-1.79-.64-3.03-2.33-3.03-4.23V6.04Z"/>
  </g>
</svg>