<?xml version="1.0" encoding="UTF-8"?>
<svg id="Camada_2" data-name="Camada 2" xmlns="http://www.w3.org/2000/svg" viewBox="0 0 22.4 28.61">
  <defs>
    <style>
      .cls-1 {
        fill: #ededed;
      }
    </style>
  </defs>
  <g id="Camada_1-2" data-name="Camada 1">
    <g>
      <path class="cls-1" d="M2.72,6.41V3.96c0-.25-.08-.47-.24-.63-.16-.16-.38-.26-.63-.25-.25,0-.47,.09-.63,.24-.16,.16-.25,.38-.25,.63v2.45C.38,6.69,.03,7.28,.03,8.02L0,20.52c0,.73,.34,1.33,.93,1.62v2.45c0,.25,.08,.47,.24,.63,.16,.16,.38,.25,.63,.25h0c.51,0,.87-.36,.88-.87v-2.45c.6-.29,.95-.88,.95-1.61l.03-12.5c0-.73-.34-1.33-.93-1.62Z"/>
      <path class="cls-1" d="M21.47,3.32V.88c0-.25-.08-.47-.24-.63-.16-.16-.38-.25-.63-.25h0c-.25,0-.47,.09-.63,.24-.16,.16-.25,.38-.25,.63V3.32c-.6,.29-.95,.88-.95,1.61l-.03,12.5c0,.73,.34,1.33,.93,1.62v2.45c0,.25,.08,.47,.24,.63,.16,.16,.38,.25,.63,.25h0c.25,0,.47-.09,.63-.24,.16-.16,.25-.38,.25-.63v-2.45c.6-.29,.95-.88,.95-1.61l.03-12.5c0-.73-.34-1.33-.93-1.62Z"/>
      <path class="cls-1" d="M12.09,9.55v-2.45c0-.25-.08-.47-.24-.63-.16-.16-.38-.25-.63-.25h0c-.25,0-.47,.09-.63,.24-.16,.16-.25,.38-.25,.63v2.45c-.6,.29-.95,.88-.95,1.61l-.03,12.5c0,.73,.34,1.33,.93,1.62v2.45c0,.25,.08,.47,.24,.63,.16,.16,.38,.25,.63,.25h0c.25,0,.47-.09,.63-.24,.16-.16,.25-.38,.25-.63v-2.45c.6-.29,.95-.88,.95-1.61l.03-12.5c0-.73-.34-1.33-.93-1.62Z"/>
    </g>
  </g>
</svg>