<?xml version="1.0" encoding="UTF-8"?>
<svg id="Camada_2" data-name="Camada 2" xmlns="http://www.w3.org/2000/svg" viewBox="0 0 34.38 31.25">
  <defs>
    <style>
      .cls-1 {
        fill: #ededed;
        fill-rule: evenodd;
      }
    </style>
  </defs>
  <g id="Camada_1-2" data-name="Camada 1">
    <path class="cls-1" d="M28.12,15.63c0-.94,.62-1.56,1.56-1.56s1.56,.62,1.56,1.56v10.94c0,2.66-2.03,4.69-4.69,4.69H4.69c-2.66,0-4.69-2.03-4.69-4.69V4.69C0,2.03,2.03,0,4.69,0H21.88C22.81,0,23.44,.62,23.44,1.56s-.62,1.56-1.56,1.56H4.69c-.94,0-1.56,.62-1.56,1.56V26.56c0,.94,.62,1.56,1.56,1.56H26.56c.94,0,1.56-.62,1.56-1.56V15.63Zm-11.41,4.22L33.91,2.66c.62-.62,.62-1.56,0-2.19-.63-.63-1.56-.63-2.19,0L15.62,16.56l-3.59-3.59c-.63-.63-1.56-.63-2.19,0-.62,.62-.62,1.56,0,2.19l4.69,4.69c.31,.31,.63,.47,1.09,.47s.78-.16,1.09-.47Z"/>
  </g>
</svg>