<?xml version="1.0" encoding="UTF-8"?>
<svg id="Camada_2" data-name="Camada 2" xmlns="http://www.w3.org/2000/svg" viewBox="0 0 55.92 55.92">
  <defs>
    <style>
      .cls-1 {
        fill: #fff;
      }

      .cls-2 {
        fill: #dd2911;
      }

      .cls-3 {
        fill: #b12233;
      }

      .cls-4 {
        fill: #3c3b6d;
      }

      .cls-5 {
        fill: #1a1f21;
      }

      .cls-6 {
        fill: #fedd19;
      }
    </style>
  </defs>
  <g id="Camada_1-2" data-name="Camada 1">
    <path class="cls-5" d="M9.87,0H46.05c5.45,0,9.87,4.42,9.87,9.87V46.05c0,5.45-4.42,9.87-9.87,9.87H9.87c-5.45,0-9.87-4.42-9.87-9.87V9.87C0,4.42,4.42,0,9.87,0Z"/>
    <g>
      <g>
        <g>
          <path class="cls-1" d="M34.86,33.22c-.37,.89-.82,1.74-1.33,2.54H5.73c-.51-.8-.96-1.65-1.33-2.54h30.46Z"/>
          <path class="cls-3" d="M35.68,30.68c-.2,.88-.48,1.73-.83,2.54H4.4c-.34-.81-.62-1.66-.83-2.54H35.68Z"/>
          <path class="cls-1" d="M36.08,28.14c-.07,.87-.2,1.71-.4,2.54H3.57c-.2-.83-.33-1.67-.4-2.54H36.08Z"/>
          <path class="cls-3" d="M33.52,35.76c-.58,.91-1.26,1.76-2,2.54H7.73c-.75-.78-1.42-1.63-2-2.54h27.8Z"/>
          <path class="cls-3" d="M28.41,40.84c-2.54,1.61-5.56,2.54-8.78,2.54s-6.24-.93-8.78-2.54H28.41Z"/>
          <path class="cls-1" d="M31.52,38.3c-.93,.97-1.97,1.82-3.11,2.54H10.84c-1.14-.72-2.18-1.57-3.11-2.54H31.52Z"/>
          <path class="cls-1" d="M31.52,15.45H7.73c.93-.97,1.97-1.82,3.11-2.54H28.41c1.14,.72,2.18,1.57,3.11,2.54Z"/>
          <path class="cls-3" d="M28.41,12.91H10.85c.52-.33,1.07-.63,1.63-.91,.05-.02,.1-.05,.16-.07,.19-.09,.38-.17,.58-.26,.09-.04,.17-.07,.26-.1,1.9-.77,3.98-1.2,6.15-1.2h0c3.23,0,6.24,.93,8.78,2.54Z"/>
          <path class="cls-3" d="M33.52,17.99H5.73c.14-.23,.3-.45,.46-.67,.01-.02,.03-.04,.04-.06,.46-.64,.96-1.24,1.51-1.81H31.52c.75,.78,1.42,1.63,2,2.54Z"/>
          <path class="cls-3" d="M35.68,23.07H3.57c.21-.87,.49-1.72,.83-2.54h30.46c.34,.82,.62,1.67,.83,2.54Z"/>
          <path class="cls-1" d="M34.86,20.53H4.4c.07-.16,.14-.33,.22-.49,.18-.39,.37-.77,.58-1.14,.17-.31,.35-.61,.54-.91h27.8c.51,.8,.96,1.65,1.33,2.54Z"/>
          <path class="cls-1" d="M36.08,25.61H3.18c0-.11,.02-.21,.03-.31,.03-.31,.07-.62,.11-.93,.07-.44,.15-.87,.26-1.3H35.68c.2,.82,.33,1.67,.4,2.54Z"/>
          <path class="cls-3" d="M36.13,26.88c0,.43-.01,.85-.05,1.27H3.18c-.03-.42-.05-.84-.05-1.27s.01-.85,.05-1.27H36.08c.03,.42,.05,.84,.05,1.27Z"/>
        </g>
        <g>
          <path class="cls-4" d="M19.62,10.38V28.14H3.18c-.03-.42-.05-.84-.05-1.27s.01-.85,.05-1.27c0-.11,.02-.21,.03-.31,.03-.31,.07-.62,.11-.93,.07-.44,.15-.87,.26-1.3,.21-.87,.49-1.72,.83-2.54,.07-.16,.14-.33,.22-.49,.18-.39,.37-.77,.58-1.14,.17-.31,.35-.61,.54-.91,.14-.23,.3-.45,.46-.67,.01-.02,.03-.04,.04-.06,.46-.64,.96-1.24,1.51-1.81,.93-.97,1.97-1.82,3.11-2.54,.52-.33,1.07-.63,1.63-.91,.05-.02,.1-.05,.16-.07,.19-.09,.38-.17,.58-.26,.09-.04,.17-.07,.26-.1,1.9-.77,3.98-1.2,6.15-1.2Z"/>
          <g>
            <g>
              <polygon class="cls-1" points="17.54 11.22 17.77 11.93 18.52 11.93 17.91 12.38 18.15 13.09 17.54 12.65 16.93 13.09 17.16 12.38 16.55 11.93 17.31 11.93 17.54 11.22"/>
              <path class="cls-1" d="M13.91,12.91l.06,.18-.24-.18-.37-.27-.37,.27-.24,.18,.06-.18,.17-.54-.51-.37c.05-.02,.1-.05,.16-.07h.49l.08-.26c.09-.04,.17-.07,.26-.1l.12,.36h.75l-.6,.44,.17,.54Z"/>
            </g>
            <g>
              <polygon class="cls-1" points="17.54 14.77 17.77 15.49 18.52 15.49 17.91 15.93 18.15 16.64 17.54 16.2 16.93 16.64 17.16 15.93 16.55 15.49 17.31 15.49 17.54 14.77"/>
              <polygon class="cls-1" points="13.36 14.77 13.59 15.49 14.34 15.49 13.73 15.93 13.97 16.64 13.36 16.2 12.75 16.64 12.99 15.93 12.37 15.49 13.13 15.49 13.36 14.77"/>
              <polygon class="cls-1" points="9.18 14.77 9.41 15.49 10.17 15.49 9.56 15.93 9.79 16.64 9.18 16.2 8.57 16.64 8.81 15.93 8.2 15.49 8.95 15.49 9.18 14.77"/>
            </g>
            <g>
              <polygon class="cls-1" points="17.54 18.33 17.77 19.04 18.52 19.04 17.91 19.48 18.15 20.2 17.54 19.76 16.93 20.2 17.16 19.48 16.55 19.04 17.31 19.04 17.54 18.33"/>
              <polygon class="cls-1" points="13.36 18.33 13.59 19.04 14.34 19.04 13.73 19.48 13.97 20.2 13.36 19.76 12.75 20.2 12.99 19.48 12.37 19.04 13.13 19.04 13.36 18.33"/>
              <polygon class="cls-1" points="9.18 18.33 9.41 19.04 10.17 19.04 9.56 19.48 9.79 20.2 9.18 19.76 8.57 20.2 8.81 19.48 8.2 19.04 8.95 19.04 9.18 18.33"/>
              <path class="cls-1" d="M5.38,19.48l.23,.71-.61-.44-.39,.29c.18-.39,.37-.77,.58-1.14l.05,.14h.75l-.6,.44Z"/>
            </g>
            <g>
              <polygon class="cls-1" points="17.54 21.88 17.77 22.59 18.52 22.59 17.91 23.04 18.15 23.75 17.54 23.31 16.93 23.75 17.16 23.04 16.55 22.59 17.31 22.59 17.54 21.88"/>
              <polygon class="cls-1" points="13.36 21.88 13.59 22.59 14.34 22.59 13.73 23.04 13.97 23.75 13.36 23.31 12.75 23.75 12.99 23.04 12.37 22.59 13.13 22.59 13.36 21.88"/>
              <polygon class="cls-1" points="9.18 21.88 9.41 22.59 10.17 22.59 9.56 23.04 9.79 23.75 9.18 23.31 8.57 23.75 8.81 23.04 8.2 22.59 8.95 22.59 9.18 21.88"/>
              <polygon class="cls-1" points="5 21.88 5.24 22.59 5.99 22.59 5.38 23.04 5.61 23.75 5 23.31 4.4 23.75 4.63 23.04 4.02 22.59 4.77 22.59 5 21.88"/>
            </g>
            <g>
              <polygon class="cls-1" points="17.54 25.43 17.77 26.15 18.52 26.15 17.91 26.59 18.15 27.3 17.54 26.86 16.93 27.3 17.16 26.59 16.55 26.15 17.31 26.15 17.54 25.43"/>
              <polygon class="cls-1" points="13.36 25.43 13.59 26.15 14.34 26.15 13.73 26.59 13.97 27.3 13.36 26.86 12.75 27.3 12.99 26.59 12.37 26.15 13.13 26.15 13.36 25.43"/>
              <polygon class="cls-1" points="9.18 25.43 9.41 26.15 10.17 26.15 9.56 26.59 9.79 27.3 9.18 26.86 8.57 27.3 8.81 26.59 8.2 26.15 8.95 26.15 9.18 25.43"/>
              <polygon class="cls-1" points="5 25.43 5.24 26.15 5.99 26.15 5.38 26.59 5.61 27.3 5 26.86 4.4 27.3 4.63 26.59 4.02 26.15 4.77 26.15 5 25.43"/>
            </g>
            <g>
              <polygon class="cls-1" points="15.45 23.65 15.68 24.37 16.43 24.37 15.83 24.81 16.05 25.52 15.45 25.08 14.84 25.52 15.07 24.81 14.47 24.37 15.22 24.37 15.45 23.65"/>
              <polygon class="cls-1" points="11.27 23.65 11.5 24.37 12.25 24.37 11.65 24.81 11.88 25.52 11.27 25.08 10.66 25.52 10.89 24.81 10.29 24.37 11.04 24.37 11.27 23.65"/>
              <polygon class="cls-1" points="7.09 23.65 7.33 24.37 8.08 24.37 7.47 24.81 7.7 25.52 7.09 25.08 6.48 25.52 6.72 24.81 6.11 24.37 6.86 24.37 7.09 23.65"/>
              <path class="cls-1" d="M3.29,24.81l.23,.71-.32-.23c.03-.31,.07-.62,.11-.93h.58l-.61,.44Z"/>
            </g>
            <g>
              <polygon class="cls-1" points="15.45 20.1 15.68 20.82 16.43 20.82 15.83 21.26 16.05 21.97 15.45 21.53 14.84 21.97 15.07 21.26 14.47 20.82 15.22 20.82 15.45 20.1"/>
              <polygon class="cls-1" points="11.27 20.1 11.5 20.82 12.25 20.82 11.65 21.26 11.88 21.97 11.27 21.53 10.66 21.97 10.89 21.26 10.29 20.82 11.04 20.82 11.27 20.1"/>
              <polygon class="cls-1" points="7.09 20.1 7.33 20.82 8.08 20.82 7.47 21.26 7.7 21.97 7.09 21.53 6.48 21.97 6.72 21.26 6.11 20.82 6.86 20.82 7.09 20.1"/>
            </g>
            <g>
              <polygon class="cls-1" points="15.45 16.55 15.68 17.26 16.43 17.26 15.83 17.71 16.05 18.42 15.45 17.98 14.84 18.42 15.07 17.71 14.47 17.26 15.22 17.26 15.45 16.55"/>
              <polygon class="cls-1" points="11.27 16.55 11.5 17.26 12.25 17.26 11.65 17.71 11.88 18.42 11.27 17.98 10.66 18.42 10.89 17.71 10.29 17.26 11.04 17.26 11.27 16.55"/>
              <path class="cls-1" d="M7.56,17.99l.14,.43-.59-.43h-.02s-.02,0-.02,0l-.59,.43,.14-.43,.09-.29-.53-.39s.03-.04,.04-.06h.63l.23-.71,.23,.71h.75l-.61,.44,.09,.29Z"/>
            </g>
            <g>
              <polygon class="cls-1" points="15.45 13 15.68 13.71 16.43 13.71 15.83 14.15 16.05 14.87 15.45 14.43 14.84 14.87 15.07 14.15 14.47 13.71 15.22 13.71 15.45 13"/>
              <polygon class="cls-1" points="11.27 13 11.5 13.71 12.25 13.71 11.65 14.15 11.88 14.87 11.27 14.43 10.66 14.87 10.89 14.15 10.29 13.71 11.04 13.71 11.27 13"/>
            </g>
          </g>
        </g>
      </g>
      <circle class="cls-5" cx="36.67" cy="26.77" r="18"/>
    </g>
    <g>
      <circle class="cls-2" cx="36.67" cy="26.77" r="16.5"/>
      <g>
        <polygon class="cls-6" points="29.6 16.2 30.56 19.13 33.64 19.13 31.15 20.94 32.1 23.87 29.6 22.06 27.11 23.87 28.06 20.94 25.57 19.13 28.65 19.13 29.6 16.2"/>
        <polygon class="cls-6" points="37.17 14.93 37.07 15.95 38.01 16.35 37.02 16.58 36.93 17.6 36.4 16.72 35.41 16.94 36.08 16.17 35.56 15.3 36.5 15.7 37.17 14.93"/>
        <polygon class="cls-6" points="40.44 18.06 39.96 18.97 40.67 19.7 39.67 19.52 39.18 20.42 39.04 19.41 38.04 19.24 38.96 18.79 38.81 17.78 39.53 18.51 40.44 18.06"/>
        <polygon class="cls-6" points="40.75 22.78 39.94 23.4 40.29 24.36 39.44 23.79 38.63 24.42 38.92 23.43 38.08 22.86 39.1 22.83 39.38 21.85 39.73 22.81 40.75 22.78"/>
        <polygon class="cls-6" points="38.03 26.14 37.04 26.41 37 27.43 36.43 26.58 35.45 26.85 36.09 26.05 35.53 25.2 36.48 25.56 37.12 24.76 37.07 25.78 38.03 26.14"/>
      </g>
    </g>
  </g>
</svg>